<?xml version="1.0" encoding="UTF-8" standalone="no"?>
<!-- Created with Inkscape (http://www.inkscape.org/) -->

<svg
   xmlns:dc="http://purl.org/dc/elements/1.1/"
   xmlns:cc="http://creativecommons.org/ns#"
   xmlns:rdf="http://www.w3.org/1999/02/22-rdf-syntax-ns#"
   xmlns:svg="http://www.w3.org/2000/svg"
   xmlns="http://www.w3.org/2000/svg"
   xmlns:sodipodi="http://sodipodi.sourceforge.net/DTD/sodipodi-0.dtd"
   xmlns:inkscape="http://www.inkscape.org/namespaces/inkscape"
   id="svg2"
   version="1.1"
   inkscape:version="0.91 r13725"
   width="1063.7162"
   height="404.5419"
   viewBox="0 0 1063.7162 404.54189"
   sodipodi:docname="splash.svg">
  <metadata
     id="metadata8">
    <rdf:RDF>
      <cc:Work
         rdf:about="">
        <dc:format>image/svg+xml</dc:format>
        <dc:type
           rdf:resource="http://purl.org/dc/dcmitype/StillImage" />
        <dc:title></dc:title>
      </cc:Work>
    </rdf:RDF>
  </metadata>
  <defs
     id="defs6" />
  <sodipodi:namedview
     pagecolor="#ffffff"
     bordercolor="#666666"
     borderopacity="1"
     objecttolerance="10000"
     gridtolerance="10"
     guidetolerance="10"
     inkscape:pageopacity="0"
     inkscape:pageshadow="2"
     inkscape:window-width="1920"
     inkscape:window-height="1043"
     id="namedview4"
     showgrid="false"
     inkscape:zoom="45.254834"
     inkscape:cx="1058.9052"
     inkscape:cy="403.81303"
     inkscape:window-x="0"
     inkscape:window-y="18"
     inkscape:window-maximized="0"
     inkscape:current-layer="g4920"
     fit-margin-top="0"
     fit-margin-left="-0.4"
     fit-margin-right="-0.2"
     fit-margin-bottom="200"
     inkscape:snap-path-clip="true"
     showborder="true"
     inkscape:document-units="ft"
     borderlayer="true">
    <sodipodi:guide
       position="-0.45675385,197.0784"
       orientation="0,1060"
       id="guide4883" />
    <sodipodi:guide
       position="1063.92,393.52626"
       orientation="-420,0"
       id="guide4885" />
    <sodipodi:guide
       position="-0.077847665,419.70309"
       orientation="0,-1060"
       id="guide4887" />
    <sodipodi:guide
       position="-0.39034765,420.15622"
       orientation="420,0"
       id="guide4889" />
  </sodipodi:namedview>
  <g
     style="display:inline"
     inkscape:label="top bg curve"
     id="g4879"
     inkscape:groupmode="layer"
     transform="translate(-0.45675383,-212.53652)">
    <path
       sodipodi:nodetypes="cccsscc"
       inkscape:connector-curvature="0"
       id="path4881"
       d="m 0.08462183,197.39025 1064.29967817,-0.0116 -0.015,20.43492 c 0,0 -439.12137,111.84783 -474.81285,121.63194 -37.16677,10.18853 -67.20289,8.97142 -110.5151,1.03171 C 447.80159,334.75002 0.07155181,222.59611 0.07155181,222.59611 Z"
       style="fill:#2f5ea1;fill-opacity:1;fill-rule:evenodd;stroke:none;stroke-width:1px;stroke-linecap:butt;stroke-linejoin:miter;stroke-opacity:1" />
  </g>
  <g
     inkscape:groupmode="layer"
     id="layer2"
     inkscape:label="curve"
     style="display:inline"
     transform="translate(-0.45675383,-212.53652)">
    <path
       style="fill:#1b4c79;fill-opacity:1;fill-rule:evenodd;stroke:none;stroke-width:1px;stroke-linecap:butt;stroke-linejoin:miter;stroke-opacity:1"
       d="m 0.09744017,217.00605 c 0,0 405.58947983,83.55234 477.07458983,97.80956 34.7581,6.93227 84.68704,6.80208 111.0755,1.6742 56.47167,-10.97373 472.38827,-102.6038 472.38827,-102.6038 l 3.7522,6.02132 c 0,0 -439.13707,111.75408 -474.82855,121.53819 -37.16677,10.18853 -67.20289,8.97142 -110.5151,1.03171 C 447.80159,336.75002 0.06619016,223.28483 0.06619016,223.28483 Z"
       id="path4805"
       inkscape:connector-curvature="0"
       sodipodi:nodetypes="cssccsscc" />
  </g>
  <g
     inkscape:groupmode="layer"
     id="layer1"
     inkscape:label="logo"
     style="display:inline"
     transform="translate(-0.45675383,-212.53652)">
    <g
       id="g4842"
       transform="matrix(0.79464827,0,0,0.79464827,106.23515,189.04291)">
      <path
         style="fill:#123864;fill-opacity:1"
         id="path12"
         d="m 534.62186,61.052398 c -16.5,2 -34.75,8.125 -49.375,16.499999 -22.25,12.875 -43.5,34.625003 -53.125,54.375003 -12.875,26.25 -8.375,44 18.25,72.125 7.625,8.125 17.5,19.875 21.75,26.125 11.875,17.375 27,29 55.375,42.625 39.875,19.25 65.25,18.875 86.25,-1.125 6.625,-6.25 9.125,-10.75 13.375,-23.5 2,-6 5.625,-16.625 8.125,-23.375 13.25,-36.75 14.75,-76.375 3.875,-103.125 -11.25,-27.875003 -38.375,-50.250003 -69.75,-57.500002 -10.75,-2.625 -27.125,-4 -34.75,-3.125 z m 27,31.874999 c 9.75,1.75 24.25,8.625003 32.25,15.125003 19.25,15.75 29.25,37.75 27.875,61.625 -0.875,14.625 -4.5,25.75 -12.25,37.5 -14.25,21.125 -36.875,33.125 -62.75,33.125 -21.375,0 -38.25,-7 -53.5,-22.375 -24.25,-24.375 -28.875,-58.875 -12,-88.875 5.125,-9.25 19.75,-23.5 29.25,-28.5 15.125,-8.000003 34,-10.750003 51.125,-7.625003 z"
         inkscape:connector-curvature="0" />
      <path
         style="fill:#123864;fill-opacity:1"
         id="path14"
         d="m 552.12186,126.8024 c -4.5,0.625 -14,1.875 -21.125,2.625 -7.5,0.875 -13.25,2.125 -13.5,3 -0.25,0.75 1.125,3.375 3.25,5.625 3.875,4.5 10.625,7.25 17.5,7.25 2.125,0 3.875,0.375 3.875,0.875 0,0.625 -1.125,4.625 -2.5,9.125 -4,12.625 -8.75,37.75 -8.75,46.125 0,8.125 1.75,12.875 6.125,16.875 3.875,3.5 5.75,1 7.625,-10.25 0.75,-5.25 4.25,-20.625 7.625,-34.25 3.375,-13.5 6.125,-26.125 6.125,-28.25 0,-3.375 0.375,-3.75 5.75,-4.5 3.25,-0.375 8.25,-0.75 11.125,-0.75 6,0 7.875,-2.25 5.25,-6.375 -4,-6.625 -14.375,-9.25 -28.375,-7.125 z"
         inkscape:connector-curvature="0" />
      <path
         style="fill:#1f4685;fill-opacity:1"
         id="path20"
         d="m 432.37186,236.6774 c -10.5,3.125 -8.5,20 3,25.5 3.625,1.625 5.375,1.75 12,0.625 15,-2.75 22.75,-8.125 19.875,-13.625 -2.25,-4.125 -10,-10 -14.75,-11.25 -8,-2.125 -15.75,-2.5 -20.125,-1.25 z"
         inkscape:connector-curvature="0" />
      <path
         style="fill:#1f4685;fill-opacity:1"
         id="path22"
         d="m 468.37186,268.6774 c -6.75,2.5 -9.375,9.875 -5.25,14.875 6.125,7.625 12.5,5.375 13.625,-4.75 0.5,-4.625 0.25,-6.125 -2,-8.375 -2.75,-2.75 -3.25,-2.875 -6.375,-1.75 z"
         inkscape:connector-curvature="0" />
    </g>
  </g>
  <g
     style="display:inline"
     inkscape:label="curve copy"
     id="g4920"
     inkscape:groupmode="layer"
     transform="translate(-0.45675383,-212.53652)">
    <path
       style="fill:#1f4685;fill-opacity:1;fill-rule:evenodd;stroke:none;stroke-width:1px;stroke-linecap:butt;stroke-linejoin:miter;stroke-opacity:1"
       d="m 1064.3536,212.53652 c 0,0 -332.57609,73.79666 -444.85751,97.49864 0.59608,7.51307 0.42564,15.50198 -0.49804,23.69336 106.52933,-27.58994 445.37495,-113.8672 445.37495,-113.8672 z m -445.35555,121.192 c -9.24551,2.39448 -16.06245,4.17508 -21.41407,5.58593 -1.5809,4.94825 -3.86724,9.59094 -7.01367,14.36133 -11.32374,16.78695 -29.30175,26.32227 -49.86328,26.32227 -16.98561,0 -30.39528,-5.56158 -42.51367,-17.7793 -5.59277,-5.6216 -9.86188,-11.92426 -12.79102,-18.61719 -2.09567,-0.3618 -4.19829,-0.7292 -6.35742,-1.125 -3.65671,-0.67032 -13.46718,-2.92414 -27.18164,-6.1875 3.10736,4.63109 7.17,9.52778 12.25977,14.9043 6.05919,6.45652 13.90594,15.79321 17.2832,20.75976 9.43645,13.80702 21.45576,23.04402 44.00391,33.8711 31.6866,15.29698 51.84949,15.00039 68.53711,-0.89258 5.26454,-4.96655 7.25165,-8.54402 10.6289,-18.67578 1.5893,-4.76789 4.47041,-13.21034 6.45703,-18.57422 4.0444,-11.21748 6.7039,-22.7708 7.96485,-33.95312 z m -167.13477,2.56054 c -6.63934,-9.895 -8.87909,-18.5687 -7.2207,-28.05078 C 326.95006,284.34168 0.09581633,217.12014 0.09581633,217.12014 l -0.0390625,6.19236 c 0,0 348.34526617,88.35795 451.80652617,112.97656 z m -7.2207,-28.05078 c 12.92836,2.62501 25.45397,5.167 32.5293,6.57813 1.24231,0.24777 2.50975,0.48306 3.78906,0.71289 0.80483,-8.09016 3.3448,-16.20131 7.69531,-23.93555 4.07257,-7.3505 15.69498,-18.67324 23.24414,-22.64648 12.01906,-6.35719 27.0186,-8.54383 40.62695,-6.06055 7.74782,1.39063 19.26977,6.85432 25.62696,12.01953 12.62684,10.33106 20.23999,24.04763 21.90039,39.19141 5.40038,-1.11107 11.93823,-2.47863 19.4414,-4.0625 -0.70863,-8.93172 -2.49402,-17.19022 -5.38476,-24.30078 -8.93979,-22.15083 -30.49369,-39.93217 -55.42578,-45.69336 -8.54247,-2.08596 -21.55409,-3.17774 -27.61328,-2.48243 -13.1117,1.5893 -27.6146,6.45615 -39.23633,13.11133 -17.68093,10.2311 -34.56831,27.51468 -42.2168,43.20899 -2.51102,5.11955 -4.1847,9.8318 -4.97656,14.35937 z m 155.41211,5.85938 c -4.58568,0.94345 -8.95466,1.83837 -11.80664,2.39257 -10.76952,2.09277 -25.48307,3.33545 -41.46289,3.62305 -0.53553,2.26351 -1.10141,4.61853 -1.70704,7.04102 -1.89517,7.65089 -3.802,15.86816 -4.99023,21.57812 16.32073,-0.26104 32.11812,-2.53024 49.4707,-7.28711 1.59466,-0.43714 4.89123,-1.3046 8.02539,-2.13086 1.51341,-4.737 2.38063,-9.75338 2.72071,-15.4375 0.19072,-3.31165 0.10111,-6.57692 -0.25,-9.77929 z m -59.9668,34.63476 c -3.94853,0.0632 -7.93941,-0.0104 -11.97851,-0.17578 -0.005,0.17962 -0.0176,0.38695 -0.0176,0.55078 0,6.45652 1.3906,10.22961 4.86718,13.4082 3.07927,2.78127 4.56863,0.79527 6.0586,-8.14453 0.17483,-1.22385 0.57703,-3.26823 1.07031,-5.63867 z m -11.97851,-0.17578 c 0.13929,-5.54817 2.39136,-18.37617 4.8496,-28.43555 -17.80703,-0.29695 -36.23265,-1.75962 -51.99804,-4.59179 -0.95594,9.60904 0.55235,19.18597 4.4414,28.07226 15.56759,2.68765 29.46528,4.413 42.70704,4.95508 z m 4.8496,-28.43555 c 4.67696,0.078 9.29651,0.0737 13.82618,-0.008 1.836,-7.7602 3.16015,-14.10089 3.16015,-15.4082 0,-2.68194 0.29713,-2.97823 4.56836,-3.57422 2.58261,-0.29799 6.55523,-0.59766 8.83985,-0.59766 4.76789,0 6.25782,-1.78653 4.17187,-5.06445 -3.17859,-5.26454 -11.4218,-7.35074 -22.54687,-5.66211 -3.57592,0.49666 -11.12524,1.48995 -16.78711,2.08594 -5.95987,0.69532 -10.52986,1.68749 -10.72852,2.38281 -0.19866,0.59599 0.8934,2.68275 2.58203,4.4707 3.07926,3.57592 8.44305,5.76172 13.90625,5.76172 1.68863,0 3.08008,0.29799 3.08008,0.69531 0,0.49666 -0.89369,3.67409 -1.98633,7.25 -0.68335,2.15684 -1.39092,4.82391 -2.08594,7.66797 z"
       id="path4922"
       inkscape:connector-curvature="0"
       sodipodi:nodetypes="ccccccccsccscccccsccccccccsccccccccccccccscccscccccscccccccccccscscccccssccc" />
  </g>
</svg>
